<svg xmlns="http://www.w3.org/2000/svg" xmlns:xlink="http://www.w3.org/1999/xlink" viewBox="0 0 185.999 42.513">
    <defs>
        <linearGradient id="a" x1="0.5" y1="1" x2="0.5" gradientUnits="objectBoundingBox">
            <stop offset="0" stop-color="#6c9c2f"/>
            <stop offset="1" stop-color="#86ba2a"/>
        </linearGradient>
    </defs>
    <g transform="translate(-77.333 -74.478)">
        <g transform="translate(77.333 74.478)">
            <path fill="url(#a)"
                  d="M87.769,84.487a13.935,13.935,0,0,0-2.529,16.239l-2.982,8.943,8.929-2.976a13.929,13.929,0,1,0-3.418-22.206Z"
                  transform="translate(-76.204 -73.119)"/>
            <path fill="url(#a)"
                  d="M83.556,80.7a21.262,21.262,0,0,0-2.93,26.4l1.6-4.8a17.824,17.824,0,0,1-1.276-6.609A17.7,17.7,0,1,1,92,112.1L87.221,113.7A21.257,21.257,0,1,0,83.556,80.7Z"
                  transform="translate(-77.333 -74.478)"/>
            <path fill="#fff"
                  d="M104.291,90.851c.012-.012.028-.02.039-.032a1.9,1.9,0,0,0-2.654-2.654l0,0-6.61,6.61-3.477-3.48,0,0a1.9,1.9,0,0,0-2.654,2.655c.011.011.026.018.037.028l4.773,4.773h0l0,0a1.872,1.872,0,0,0,2.646,0l0,0h0Z"
                  transform="translate(-74.774 -71.44)"/>
        </g>
        <g transform="translate(130.391 85.111)">
            <path fill="#032b51"
                  d="M213.792,86.231a10.47,10.47,0,0,0-14.878,0,10.562,10.562,0,0,0,0,14.962,10.47,10.47,0,0,0,14.878,0,10.565,10.565,0,0,0,0-14.962ZM209.135,98c-.454,1.734-1.368,2.555-2.737,2.555-1.461,0-2.373-.821-2.831-2.555a17.851,17.851,0,0,1-.365-4.287,17.393,17.393,0,0,1,.365-4.29c.457-1.732,1.369-2.554,2.831-2.554,1.369,0,2.284.822,2.737,2.554a17.26,17.26,0,0,1,.366,4.29A17.244,17.244,0,0,1,209.135,98Z"
                  transform="translate(-103.248 -83.129)"/>
            <path fill="#032b51"
                  d="M155.483,85.045a14.95,14.95,0,0,0-6.39-1.916h-9.951V104.3h7.4V99h2.555a13.775,13.775,0,0,0,6.39-1.915,6.963,6.963,0,0,0,0-12.044ZM150.827,93.9a2.588,2.588,0,0,1-1.734,1.277,1.991,1.991,0,0,1-.73.092h-1.825V86.87h1.825a2.016,2.016,0,0,1,.73.091,2.409,2.409,0,0,1,1.734,1.277,5.667,5.667,0,0,1,.731,2.828A5.935,5.935,0,0,1,150.827,93.9Z"
                  transform="translate(-116.23 -83.129)"/>
            <path fill="#032b51"
                  d="M131.091,83.129a10.583,10.583,0,1,0,0,21.166,10.579,10.579,0,0,0,7.393-18.064A10.29,10.29,0,0,0,131.091,83.129ZM133.829,98c-.457,1.734-1.37,2.555-2.738,2.555s-2.373-.821-2.831-2.555a24.143,24.143,0,0,1-.366-4.287,23.334,23.334,0,0,1,.366-4.29c.457-1.732,1.461-2.554,2.831-2.554s2.281.822,2.738,2.554a20.393,20.393,0,0,1,0,8.577Z"
                  transform="translate(-120.501 -83.129)"/>
            <path fill="#032b51"
                  d="M178.485,93.714l-7.394-9.4a3.762,3.762,0,0,0-2.922-1.187,4.028,4.028,0,0,0-2.737,1.1,3.552,3.552,0,0,0-1.186,2.555V104.3h4.288V93.714l7.393,9.4a3.576,3.576,0,0,0,2.832,1.185A3.712,3.712,0,0,0,181.5,103.2a3.331,3.331,0,0,0,1.278-2.554V83.129h-4.291Z"
                  transform="translate(-110.479 -83.129)"/>
            <rect fill="#032b51" width="6.573" height="14.505" transform="translate(44.546 6.662)"/>
            <path fill="#032b51"
                  d="M182.863,83.768a2.436,2.436,0,0,0-1.463,2.007V101.65a2.436,2.436,0,0,0,1.463,2.008,5.871,5.871,0,0,0,2.554.637h11.867v-3.739H189.07c-.639,0-1.005-.273-1.005-.821v-4.2h9.219V91.889h-9.219V87.6c0-.457.366-.731,1.005-.731h8.214V83.129H185.417A5.89,5.89,0,0,0,182.863,83.768Z"
                  transform="translate(-106.549 -83.129)"/>
            <rect fill="#032b51" width="6.573" height="4.289" transform="translate(44.546)"/>
            <g transform="translate(118.381 5.273)">
                <path fill="#032b51"
                      d="M223.15,90.092h-.658a4.047,4.047,0,0,0-1.4.494,5.714,5.714,0,0,0-1.809,1.4l.247-1.643h-1.153l-1.561,12.408h1.15l.661-4.929a4.728,4.728,0,0,0,1.479,1.394,4.564,4.564,0,0,0,1.893.411h.493a4.988,4.988,0,0,0,2.962-1.4,5.1,5.1,0,0,0,1.808-3.369,4.057,4.057,0,0,0-.988-3.369A4,4,0,0,0,223.15,90.092Zm2.22,6.657a4.512,4.512,0,0,1-1.479,1.313,4.773,4.773,0,0,1-1.4.494H222a3.444,3.444,0,0,1-1.727-.494,2.973,2.973,0,0,1-1.155-1.313,3.261,3.261,0,0,1-.243-1.808,4.25,4.25,0,0,1,1.314-2.63,3.968,3.968,0,0,1,2.3-1.068h.412a3.815,3.815,0,0,1,1.724.411,2.733,2.733,0,0,1,1.153,1.4,4.378,4.378,0,0,1,.331,1.808A4.528,4.528,0,0,1,225.369,96.749Z"
                      transform="translate(-216.816 -86.806)"/>
                <path fill="#032b51" d="M228,87.419,226.52,99.988h1.151l1.481-12.569Z"
                      transform="translate(-214.593 -87.419)"/>
            </g>
            <path fill="#032b51" d="M216.227,97.032a1.336,1.336,0,1,1-1.336-1.335A1.335,1.335,0,0,1,216.227,97.032Z"
                  transform="translate(-99.182 -80.249)"/>
        </g>
    </g>
</svg>